<?xml version="1.0" standalone="no"?>
<!DOCTYPE svg PUBLIC "-//W3C//DTD SVG 20010904//EN"
 "http://www.w3.org/TR/2001/REC-SVG-20010904/DTD/svg10.dtd">
<svg version="1.0" xmlns="http://www.w3.org/2000/svg"
 width="1080.000000pt" height="1080.000000pt" viewBox="0 0 1080.000000 1080.000000"
 preserveAspectRatio="xMidYMid meet">
<metadata>
Created by potrace 1.14, written by Peter Selinger 2001-2017
</metadata>
<g transform="translate(0.000000,1080.000000) scale(0.100000,-0.100000)"
fill="#000000" stroke="none">
<path d="M0 5400 l0 -5400 5400 0 5400 0 0 5400 0 5400 -5400 0 -5400 0 0
-5400z m5565 3339 c734 -53 1366 -277 1737 -617 224 -207 487 -626 652 -1043
52 -132 58 -194 31 -336 -8 -43 -15 -79 -15 -80 0 -1 60 -3 133 -5 118 -3 135
-5 163 -25 64 -46 64 -47 64 -510 0 -466 0 -464 -69 -510 -28 -19 -48 -23
-107 -23 -41 0 -74 -4 -74 -9 0 -6 42 -74 93 -153 251 -385 337 -542 337 -614
0 -102 -100 -238 -221 -298 -83 -42 -131 -52 -319 -66 -80 -6 -148 -14 -152
-18 -3 -4 -8 -243 -10 -532 l-4 -525 -48 -97 c-85 -168 -182 -276 -277 -307
-27 -9 -509 -26 -877 -31 -18 0 -121 -99 -139 -133 -23 -45 -32 -124 -43 -402
-12 -287 -17 -306 -83 -343 -30 -16 -121 -17 -1442 -13 -1517 4 -1433 1 -1485
56 l-25 27 -5 868 -5 868 -70 52 c-70 52 -103 81 -76 65 11 -6 13 -3 8 16 -3
13 -2 31 3 39 7 11 10 11 10 2 0 -7 5 -10 10 -7 19 11 -1 25 -35 25 -19 0 -37
5 -40 10 -4 6 -3 10 2 9 4 -1 11 0 16 1 4 1 13 3 20 4 8 1 13 26 14 81 1 44 3
83 4 88 1 4 2 11 3 16 0 5 5 13 10 18 5 5 6 3 2 -4 -4 -7 -2 -13 4 -13 7 0 9
-7 6 -16 -4 -10 -2 -14 6 -11 7 2 12 10 11 16 -2 6 2 11 8 11 8 0 7 6 -2 18
-11 14 -11 15 0 5 7 -6 18 -21 25 -34 6 -12 18 -24 26 -26 10 -3 8 1 -4 11
-11 9 -16 16 -10 16 5 -1 20 -10 33 -21 19 -15 22 -22 12 -28 -10 -6 -9 -10 4
-14 10 -5 14 -3 9 4 -4 7 -1 10 7 7 8 -3 13 -11 11 -17 -1 -7 1 -10 6 -7 5 3
33 -12 62 -34 30 -22 57 -37 62 -32 4 4 13 35 19 67 26 151 90 315 157 404
179 237 531 301 902 164 99 -37 207 -88 273 -130 21 -13 41 -22 44 -19 5 5
-24 330 -32 352 -2 6 -38 14 -80 18 -387 35 -740 284 -905 640 -21 45 -44 100
-51 124 -7 23 -15 42 -19 42 -4 0 -105 -47 -224 -105 -131 -63 -223 -102 -234
-99 -13 4 -14 3 -4 -4 18 -13 -12 -25 -42 -17 -17 5 -18 4 -6 -4 14 -10 13
-11 -17 -11 -5 0 -8 4 -8 10 0 5 -5 14 -10 19 -8 8 -11 4 -12 -10 -1 -12 -4
-23 -6 -25 -8 -8 -66 -11 -61 -3 3 5 14 9 25 9 26 0 24 17 -3 31 -14 8 -18 14
-10 17 6 2 10 7 7 12 -3 4 1 10 9 13 10 4 12 -1 9 -16 -5 -22 -5 -22 10 -2 8
11 14 23 11 26 -2 3 9 5 24 3 15 -2 19 -1 9 2 -9 3 -15 10 -12 15 8 12 3 12
-39 -6 -68 -29 -36 -5 49 36 47 22 90 37 96 33 7 -4 9 -3 6 3 -3 5 86 55 197
111 l204 101 4 173 c4 145 10 189 32 273 31 119 115 294 185 386 66 86 201
214 280 264 l62 40 -7 71 c-7 82 12 174 51 239 l23 41 -71 81 c-40 45 -80 82
-90 82 -34 2 -180 -69 -278 -134 -53 -36 -149 -115 -216 -179 -149 -143 -164
-146 -225 -51 -81 125 -207 318 -241 369 -25 37 -34 57 -23 53 19 -8 20 2 2
25 -10 14 -15 15 -26 5 -12 -10 -12 -9 -2 4 6 9 8 19 4 23 -4 4 -2 7 3 6 22
-5 35 1 35 15 0 9 -9 15 -21 15 -18 0 -20 4 -14 23 4 12 7 32 7 44 0 14 4 20
11 16 6 -4 8 0 4 10 -16 42 16 10 65 -65 61 -95 65 -104 48 -93 -9 5 -11 4 -6
-4 4 -6 11 -9 15 -7 4 3 55 -67 112 -154 57 -88 108 -160 113 -160 5 0 45 35
90 78 97 93 218 175 349 238 54 25 97 48 97 51 0 2 -33 50 -74 106 -85 117
-189 284 -236 378 -18 35 -34 66 -36 68 -4 4 -220 -105 -254 -129 -14 -10 -45
-27 -69 -40 -25 -12 -51 -29 -59 -36 -8 -9 -23 -12 -36 -9 -15 5 -17 4 -7 -3
11 -8 9 -12 -10 -22 -13 -7 -35 -20 -49 -29 -23 -15 -24 -15 -17 3 6 16 5 17
-8 6 -8 -7 -12 -16 -10 -21 3 -4 -3 -13 -14 -18 -28 -16 -38 -13 -15 3 34 26
21 124 -17 126 -4 0 -9 -10 -12 -21 -5 -20 -7 -21 -23 -5 -12 13 -14 20 -5 29
14 14 15 97 1 97 -16 0 -11 28 6 38 9 5 14 15 10 21 -4 6 -12 9 -17 6 -22 -14
-6 4 17 20 15 9 24 13 21 9 -3 -5 1 -14 8 -21 10 -9 14 -9 18 1 3 8 2 17 -3
22 -5 5 9 22 32 38 23 17 38 23 34 15 -4 -8 1 -4 11 7 21 25 151 95 273 146
205 87 450 156 712 202 400 70 771 87 1213 55z m-2445 -572 c0 -2 -10 -12 -22
-23 l-23 -19 19 23 c18 21 26 27 26 19z m180 -163 c0 -2 -6 -1 -14 2 -8 3 -23
0 -33 -6 -14 -9 -14 -10 -2 -7 9 3 22 0 28 -6 17 -17 13 -26 -10 -20 -28 8
-50 -21 -43 -56 l5 -26 -16 28 c-15 27 -15 30 2 42 17 13 17 14 1 20 -21 8
-24 25 -5 25 6 0 23 13 37 28 l25 27 13 -23 c6 -14 12 -26 12 -28z m-80 26 c0
-5 -4 -10 -10 -10 -5 0 -10 5 -10 10 0 6 5 10 10 10 6 0 10 -4 10 -10z m30
-178 c-6 -2 -10 -11 -9 -20 0 -11 2 -12 6 -4 2 6 12 12 20 12 10 0 13 6 8 18
-4 12 -3 14 5 6 13 -13 -3 -64 -20 -64 -5 0 -10 -5 -10 -11 0 -5 5 -7 11 -4 6
4 5 -3 -3 -14 -12 -20 -14 -18 -22 31 -4 29 -13 57 -20 61 -7 6 -4 7 7 3 10
-3 17 0 17 7 0 7 4 6 10 -3 6 -10 6 -16 0 -18z m-5 -121 c6 8 10 7 17 -5 9
-16 3 -36 -11 -36 -4 0 -18 15 -31 33 -20 28 -21 30 -3 14 15 -13 23 -15 28
-6z m28 -439 c6 3 47 -46 47 -57 0 -4 -7 -2 -15 5 -13 11 -14 10 -9 -4 3 -9
14 -16 24 -16 11 0 22 -12 29 -31 14 -41 14 -139 0 -139 -5 0 -8 -4 -5 -9 8
-12 -4 -42 -14 -36 -10 6 -35 -23 -26 -32 3 -3 6 -1 6 5 0 7 5 12 11 12 8 0 8
-5 -1 -15 -7 -8 -16 -13 -20 -10 -9 6 -32 -20 -25 -27 3 -3 -2 -11 -10 -18
-14 -12 -14 -10 -5 15 6 15 8 30 5 33 -3 3 -5 0 -5 -6 0 -7 -4 -12 -9 -12 -4
0 -7 16 -5 35 1 19 -2 35 -8 35 -6 0 -6 6 2 15 6 8 9 18 6 24 -4 5 3 12 14 16
22 7 26 20 10 30 -8 5 -7 11 0 20 7 8 9 23 5 34 -3 10 -1 22 5 26 6 3 7 12 4
18 -4 7 -3 8 1 4 5 -4 8 -26 6 -47 -2 -26 2 -40 9 -40 8 0 10 9 6 25 -5 18 -2
27 9 31 8 4 15 14 15 23 0 12 -2 13 -9 3 -6 -10 -10 -10 -21 3 -15 18 -44 20
-37 2 3 -8 -1 -14 -9 -14 -25 0 -12 60 14 67 14 3 19 9 14 17 -6 9 -16 6 -36
-12 -28 -24 -57 -25 -37 -1 7 9 7 17 -2 26 -7 8 -3 8 8 -1 24 -20 46 -14 38 9
-4 13 -3 14 5 4 5 -8 12 -12 15 -10z m-75 -84 c-2 -7 3 -12 10 -10 8 1 11 -2
7 -8 -5 -8 -11 -8 -21 1 -7 6 -11 15 -8 20 8 13 14 11 12 -3z m68 -65 c-3 -4
-6 0 -6 8 0 11 -2 11 -10 -1 -8 -13 -10 -13 -10 1 0 24 13 32 23 14 5 -9 6
-19 3 -22z m-29 -45 c-3 -8 -6 -5 -6 6 -1 11 2 17 5 13 3 -3 4 -12 1 -19z
m-42 -78 c-3 -5 -12 -10 -18 -10 -7 0 -6 4 3 10 19 12 23 12 15 0z m21 -37
c-10 -10 -19 5 -10 18 6 11 8 11 12 0 2 -7 1 -15 -2 -18z m29 -52 c-6 -5 -25
10 -25 20 0 5 6 4 14 -3 8 -7 12 -15 11 -17z m-31 3 c3 -8 2 -12 -4 -9 -6 3
-10 10 -10 16 0 14 7 11 14 -7z m233 -1809 c97 -41 153 -123 153 -225 0 -136
-105 -240 -243 -240 -29 0 -58 5 -65 12 -7 7 -12 9 -12 5 0 -4 -13 -1 -30 8
-16 9 -30 18 -30 21 0 3 5 2 11 -2 6 -3 16 0 21 7 8 11 9 10 4 -3 -3 -12 0
-18 10 -18 8 0 12 5 9 10 -3 6 -1 10 4 10 6 0 11 -7 11 -15 0 -8 4 -15 9 -15
5 0 11 7 15 15 3 8 1 15 -4 15 -6 0 -10 7 -10 16 0 11 -6 14 -22 10 -16 -4
-13 -1 7 9 l30 16 -46 -6 c-35 -4 -51 -2 -63 10 -9 9 -16 17 -16 18 0 1 16 2
35 3 22 0 31 -3 23 -8 -10 -6 -8 -8 5 -8 9 0 17 7 17 15 0 10 6 12 18 8 15 -6
16 -5 2 12 -15 18 -14 19 10 2 52 -36 125 -16 155 43 19 38 19 64 -2 103 -9
18 -16 35 -15 39 1 4 -4 5 -12 2 -8 -3 -21 5 -30 18 -9 12 -16 16 -16 9 0 -9
-9 -12 -30 -9 -17 3 -30 0 -30 -6 0 -5 -7 -1 -16 10 -15 19 -15 18 -11 -3 3
-16 -2 -27 -19 -38 -15 -10 -24 -11 -24 -4 0 6 9 13 20 16 11 3 17 9 14 14 -3
5 -10 7 -15 3 -17 -10 -70 -11 -76 -1 -4 6 -1 7 7 2 10 -6 12 -3 8 13 -4 15
-2 19 8 15 8 -3 14 -9 14 -14 0 -4 7 -6 16 -2 13 5 13 7 2 14 -8 6 0 9 25 9
20 0 37 5 37 10 0 6 -4 10 -9 10 -6 0 -3 16 5 35 13 31 5 50 -11 25 -4 -6 -11
-7 -18 -3 -37 23 116 30 170 8z m-174 -55 c-6 -23 -9 -24 -27 -8 -10 9 -10 17
-3 30 14 22 37 5 30 -22z m-53 -130 c0 -10 -3 -21 -8 -23 -4 -3 -7 8 -7 23 -1
16 3 26 7 24 4 -3 8 -14 8 -24z m0 -85 c0 -5 -5 -3 -10 5 -5 8 -10 20 -10 25
0 6 5 3 10 -5 5 -8 10 -19 10 -25z m33 -41 c-6 -17 -23 -19 -23 -1 0 8 -4 7
-10 -3 -5 -8 -10 -10 -10 -4 0 15 6 19 29 21 13 1 18 -3 14 -13z m-88 -23 c3
-5 2 -12 -3 -15 -5 -3 -9 1 -9 9 0 17 3 19 12 6z m29 -57 c7 -19 2 -18 -19 6
-16 17 -16 20 -3 15 9 -4 19 -13 22 -21z m54 -409 c3 -3 -4 -4 -16 -2 -12 2
-24 6 -28 10 -4 3 4 4 16 2 12 -2 25 -7 28 -10z m-87 -282 c13 -16 12 -17 -3
-4 -17 13 -22 21 -14 21 2 0 10 -8 17 -17z"/>
<path d="M4815 8441 l-80 -6 -3 -50 c-5 -70 15 -219 43 -323 23 -86 78 -246
93 -269 4 -7 53 -19 109 -27 428 -64 737 -235 934 -517 48 -68 51 -66 67 31
31 184 23 362 -23 557 -44 185 -135 390 -235 524 -41 57 -53 67 -86 72 -58 9
-726 16 -819 8z"/>
<path d="M4470 8409 c-169 -27 -466 -95 -487 -111 -26 -21 201 -354 446 -657
42 -51 83 -102 91 -113 15 -19 17 -18 82 12 40 19 90 33 125 36 32 3 63 7 70
9 8 3 -4 38 -37 104 -27 55 -70 160 -94 233 -46 134 -49 153 -72 436 l-6 62
-31 -1 c-18 -1 -57 -5 -87 -10z"/>
<path d="M5882 8393 c2 -5 35 -73 75 -153 79 -159 121 -275 155 -433 30 -138
33 -456 5 -587 -37 -175 -108 -345 -200 -483 l-46 -68 35 -63 c85 -155 128
-332 128 -526 -1 -192 -43 -358 -134 -527 -22 -42 -39 -78 -36 -80 2 -2 89 36
193 84 103 49 214 100 246 113 54 22 61 30 118 118 75 116 151 273 179 372 15
53 24 122 30 237 10 193 35 304 93 417 47 90 125 180 198 226 l50 33 330 -23
c181 -13 332 -20 336 -17 8 9 -9 50 -93 219 -131 264 -260 453 -419 613 -128
129 -230 200 -419 291 -198 95 -417 166 -677 219 -137 27 -152 29 -147 18z"/>
<path d="M3282 8143 c2 -34 8 -58 16 -61 13 -4 16 35 6 87 -11 52 -25 35 -22
-26z"/>
<path d="M3320 7783 c0 -6 8 -17 18 -24 16 -13 16 -13 2 6 -8 11 -16 22 -17
24 -2 2 -3 0 -3 -6z"/>
<path d="M3296 7755 c4 -8 10 -12 15 -9 11 6 2 24 -11 24 -5 0 -7 -7 -4 -15z"/>
<path d="M3370 7705 c0 -5 5 -17 10 -25 5 -8 10 -10 10 -5 0 6 -5 17 -10 25
-5 8 -10 11 -10 5z"/>
<path d="M3325 7620 c-3 -5 1 -10 10 -10 9 0 13 5 10 10 -3 6 -8 10 -10 10 -2
0 -7 -4 -10 -10z"/>
<path d="M4966 7608 c25 -44 74 -109 115 -154 62 -69 89 -121 109 -213 l16
-75 70 -23 c160 -54 347 -173 452 -287 59 -65 56 -66 122 56 l42 78 -32 62
c-91 179 -256 340 -448 437 -78 40 -217 86 -330 111 -104 23 -126 25 -116 8z"/>
<path d="M3336 7568 c3 -5 10 -6 15 -3 13 9 11 12 -6 12 -8 0 -12 -4 -9 -9z"/>
<path d="M4687 7426 c-66 -24 -120 -74 -154 -141 -72 -140 1 -317 151 -374 72
-27 120 -27 192 0 107 40 176 139 177 253 1 104 -49 189 -142 243 -53 32 -164
41 -224 19z"/>
<path d="M5140 6958 c-138 -241 -468 -279 -662 -76 l-47 50 -58 -39 c-76 -50
-182 -151 -240 -227 -60 -79 -137 -240 -164 -341 -33 -120 -33 -356 -1 -475
78 -288 268 -518 535 -645 143 -69 236 -90 397 -89 118 0 146 4 224 28 194 59
367 166 509 316 139 146 219 305 248 490 15 99 6 273 -20 375 -23 87 -92 238
-142 311 -82 120 -231 250 -359 314 -58 30 -164 70 -179 70 -3 0 -22 -28 -41
-62z m-95 -273 c210 -44 390 -204 456 -407 35 -106 35 -281 0 -387 -85 -259
-347 -436 -618 -418 -222 15 -420 147 -513 342 -49 104 -62 160 -61 275 0 167
58 306 176 426 146 148 357 211 560 169z"/>
<path d="M4835 6550 c-170 -33 -312 -158 -365 -320 -109 -330 182 -671 521
-610 270 48 451 317 384 573 -43 165 -178 306 -332 346 -56 15 -158 20 -208
11z"/>
<path d="M6931 6872 c-53 -53 -102 -146 -126 -237 -9 -34 -20 -136 -25 -235
-13 -260 -62 -412 -212 -659 -21 -35 -35 -68 -31 -72 13 -13 218 -87 348 -126
186 -55 288 -55 429 -2 65 24 216 122 260 168 l30 31 -104 0 -104 0 -52 53
c-143 148 -150 465 -14 637 54 68 83 80 199 80 100 0 101 0 101 24 0 14 4 36
9 49 14 36 63 279 57 284 -4 4 -631 52 -689 53 -20 0 -41 -13 -76 -48z"/>
<path d="M7430 6328 c-32 -52 -44 -107 -44 -203 0 -96 12 -151 44 -202 l20
-33 290 0 290 0 -2 233 -3 232 -288 3 -287 2 -20 -32z"/>
<path d="M3318 5653 c7 -3 16 -2 19 1 4 3 -2 6 -13 5 -11 0 -14 -3 -6 -6z"/>
<path d="M3275 5600 c-8 -13 5 -13 25 0 13 8 13 10 -2 10 -9 0 -20 -4 -23 -10z"/>
<path d="M7610 5545 c-77 -64 -207 -134 -305 -165 -50 -16 -101 -24 -179 -26
l-110 -3 -19 -37 c-86 -167 -212 -522 -247 -694 -27 -130 -29 -262 -5 -350 23
-86 17 -209 -12 -265 -40 -76 -112 -124 -219 -145 -66 -13 -151 -2 -207 26
-39 21 -166 124 -352 288 -279 246 -293 256 -377 256 -68 0 -114 -13 -210 -57
l-78 -36 0 -123 0 -123 103 -92 c245 -220 578 -451 1039 -718 l108 -63 297 2
c315 1 471 11 531 36 37 14 66 51 112 143 22 43 22 51 27 620 3 330 9 590 14
608 13 41 70 91 111 97 18 2 114 12 213 21 180 16 309 38 333 57 32 27 -5 135
-89 260 -24 35 -110 153 -192 262 -82 110 -160 217 -174 238 -14 21 -31 38
-37 37 -6 0 -40 -25 -76 -54z"/>
<path d="M6035 5371 c-486 -245 -795 -374 -932 -388 -29 -3 -56 -10 -59 -15
-5 -8 28 -314 44 -408 6 -38 13 -48 52 -71 52 -32 77 -35 108 -13 41 28 164
74 245 90 95 19 185 9 244 -27 58 -36 174 -131 365 -297 231 -202 269 -229
321 -237 90 -14 171 30 187 99 9 42 7 62 -17 169 -22 93 -12 276 21 421 34
143 113 376 182 534 74 169 74 168 32 177 -18 4 -118 38 -222 76 -104 38 -196
69 -205 68 -9 -1 -173 -81 -366 -178z m492 78 c64 -31 97 -91 91 -168 -7 -101
-70 -161 -168 -161 -70 0 -117 24 -151 79 -97 153 64 330 228 250z m-1069
-499 c45 -28 72 -76 72 -130 0 -27 -8 -58 -20 -78 -78 -127 -280 -74 -280 73
0 120 128 196 228 135z m954 -487 c42 -21 63 -70 59 -141 -1 -12 -16 -38 -34
-58 -86 -94 -235 -28 -224 99 9 101 103 149 199 100z"/>
<path d="M4113 4669 c-41 -8 -113 -37 -113 -46 0 -2 30 -128 66 -281 37 -152
66 -288 66 -302 0 -14 -43 -219 -96 -456 l-95 -430 46 -140 c44 -133 46 -150
69 -389 13 -137 24 -258 24 -267 0 -16 15 -18 177 -18 99 0 173 4 168 9 -6 4
-50 13 -100 19 -78 9 -92 14 -112 37 -22 25 -23 34 -23 186 0 156 1 160 25
184 28 29 29 29 160 10 149 -21 135 -28 135 70 0 98 19 85 -160 109 -161 22
-160 20 -160 216 0 226 4 230 180 206 63 -9 120 -16 127 -16 10 0 13 21 13 79
l0 79 -32 5 c-18 4 -71 11 -118 17 -115 16 -145 26 -159 56 -14 31 -15 302 -1
338 16 43 38 48 156 31 168 -23 155 -29 152 63 l-3 77 -139 21 c-184 27 -176
17 -176 224 0 217 8 226 175 201 33 -5 79 -12 103 -15 l42 -6 0 44 c0 44 0 44
-47 60 -108 34 -252 45 -350 25z"/>
<path d="M4656 4542 c-3 -3 -6 -29 -6 -59 0 -40 -5 -58 -20 -73 -24 -24 -29
-24 -170 -5 -61 9 -115 13 -120 10 -6 -3 -10 -33 -10 -66 0 -72 -2 -71 159
-89 168 -20 161 -10 161 -234 0 -242 9 -234 -213 -203 -113 16 -110 19 -105
-69 l3 -59 50 -6 c211 -29 228 -32 246 -50 17 -17 19 -36 19 -197 0 -208 -4
-222 -73 -222 -23 0 -84 7 -136 15 -52 8 -98 12 -103 9 -4 -3 -8 -34 -8 -69 0
-75 -17 -66 165 -89 163 -21 155 -9 155 -240 0 -216 -4 -226 -78 -226 -26 0
-87 7 -137 14 -49 8 -93 12 -97 9 -5 -2 -8 -33 -8 -68 0 -74 -17 -65 170 -90
69 -9 121 -21 129 -30 8 -8 18 -36 21 -62 l5 -48 84 0 85 0 8 33 c14 53 39 58
180 40 68 -9 126 -14 130 -12 10 7 10 121 0 128 -4 2 -65 12 -135 22 -187 25
-177 11 -177 245 0 251 -6 244 205 215 54 -8 103 -12 107 -10 14 9 9 124 -6
130 -7 3 -71 13 -141 23 -173 24 -165 12 -165 240 0 176 0 178 25 201 l25 23
124 -16 c68 -10 129 -17 135 -17 8 0 11 21 9 68 l-3 67 -137 20 c-188 28 -178
14 -178 234 0 210 4 221 78 221 26 -1 89 -7 140 -14 107 -15 105 -17 100 65
l-3 54 -242 121 c-133 67 -244 119 -247 116z"/>
<path d="M3831 4478 c-44 -59 -41 -68 20 -68 l51 0 -7 48 c-11 77 -20 80 -64
20z"/>
<path d="M3740 4323 c-11 -26 -18 -53 -16 -60 7 -16 201 -19 211 -3 4 6 1 33
-5 60 l-12 50 -79 0 -78 0 -21 -47z"/>
<path d="M3695 4198 c-13 -40 -21 -85 -18 -95 6 -15 288 -19 297 -4 4 5 1 32
-6 60 l-11 51 -129 0 c-94 0 -130 -3 -133 -12z"/>
<path d="M3293 4185 c-7 -8 -13 -35 -13 -60 0 -29 -4 -45 -12 -45 -8 0 -9 -3
-3 -8 11 -8 16 -25 19 -59 2 -44 23 -23 22 23 0 26 -2 42 -4 35 -2 -6 -8 -8
-13 -5 -6 4 -6 11 1 18 5 7 11 31 13 52 1 21 6 45 10 52 11 17 -5 15 -20 -3z"/>
<path d="M3660 4006 c0 -79 -3 -77 135 -75 165 2 170 3 184 49 22 74 30 70
-154 70 l-165 0 0 -44z"/>
<path d="M4972 3973 l3 -78 137 -20 c187 -27 178 -16 178 -222 0 -97 -4 -172
-11 -184 -18 -34 -50 -39 -151 -24 -51 8 -108 15 -126 15 l-33 0 3 -77 3 -77
95 -13 c237 -31 220 -13 220 -233 0 -198 -4 -210 -78 -210 -26 0 -87 7 -137
14 -49 8 -94 11 -98 7 -4 -5 -7 -43 -5 -87 l3 -79 135 -18 c184 -25 179 -19
182 -201 l3 -141 82 -3 81 -3 6 53 c3 29 8 115 10 190 l6 136 85 144 c99 165
92 124 70 463 -8 121 -15 239 -15 262 0 41 -1 42 -127 140 -70 54 -174 144
-232 199 l-106 101 -84 12 c-46 6 -88 11 -93 11 -5 0 -8 -35 -6 -77z"/>
<path d="M3250 3986 c0 -11 3 -16 7 -13 3 4 12 -2 20 -13 15 -21 38 -26 48
-10 3 5 0 7 -8 4 -9 -3 -26 7 -41 23 -22 24 -26 25 -26 9z"/>
<path d="M3662 3833 l3 -58 123 0 c73 0 126 4 131 10 7 10 31 85 31 99 0 3
-65 6 -145 6 l-146 0 3 -57z"/>
<path d="M3391 3814 c0 -11 3 -14 6 -6 3 7 2 16 -1 19 -3 4 -6 -2 -5 -13z"/>
<path d="M3662 3673 l3 -58 103 -3 c114 -3 111 -5 127 82 l7 36 -121 0 -122 0
3 -57z"/>
<path d="M3660 3511 c0 -35 5 -62 13 -68 9 -8 126 -10 169 -4 6 1 11 19 24 94
l6 37 -106 0 -106 0 0 -59z"/>
<path d="M5772 3483 l3 -38 55 -3 55 -2 -27 23 c-15 12 -42 31 -59 41 l-30 18
3 -39z"/>
<path d="M3660 3341 c0 -29 6 -53 14 -60 15 -12 135 -6 147 7 4 4 10 28 13 55
l7 47 -90 0 -91 0 0 -49z"/>
<path d="M5782 3338 l3 -53 173 -3 c94 -1 172 1 172 5 0 5 -35 29 -78 56 l-78
47 -97 0 -98 0 3 -52z"/>
<path d="M3663 3224 c-2 -7 -3 -31 -1 -55 l3 -44 69 0 70 0 0 53 1 54 -69 2
c-44 1 -70 -3 -73 -10z"/>
<path d="M5792 3178 l3 -53 265 -3 c146 -1 275 0 288 3 37 9 25 29 -43 68
l-64 37 -226 0 -226 0 3 -52z"/>
<path d="M3662 3018 l3 -53 84 -3 c113 -4 113 -4 93 57 l-16 51 -83 0 -84 0 3
-52z"/>
<path d="M5800 3015 l0 -55 209 0 209 0 36 49 c20 27 36 51 36 55 0 3 -110 6
-245 6 l-245 0 0 -55z"/>
<path d="M3664 2906 c-3 -7 -4 -33 -2 -57 l3 -44 119 -3 119 -3 -6 33 c-3 18
-10 45 -16 61 -10 27 -11 27 -111 27 -77 0 -102 -3 -106 -14z"/>
<path d="M5736 2866 c-14 -25 -26 -50 -26 -56 0 -8 62 -11 216 -9 l216 1 19
45 c10 25 19 49 19 54 0 5 -89 9 -209 9 l-209 0 -26 -44z"/>
<path d="M3664 2747 c-3 -8 -4 -34 -2 -58 l3 -44 114 -3 c63 -1 120 -1 126 2
7 2 9 23 5 57 l-5 54 -118 3 c-95 3 -118 1 -123 -11z"/>
<path d="M5644 2709 c-44 -70 -45 -69 230 -69 138 0 247 4 250 9 4 5 9 30 12
55 l7 46 -237 0 -236 0 -26 -41z"/>
<path d="M3662 2538 l3 -53 133 -3 132 -3 0 24 c0 14 -3 39 -6 56 l-6 31 -130
0 -129 0 3 -52z"/>
<path d="M5618 2543 c-3 -27 -3 -51 -1 -55 2 -5 116 -8 252 -8 l249 0 6 23 c3
12 6 37 6 55 l0 32 -254 0 -254 0 -4 -47z"/>
<path d="M3667 2434 c-4 -4 -7 -27 -7 -51 l0 -43 141 0 140 0 -3 48 -3 47
-131 3 c-71 1 -133 -1 -137 -4z"/>
<path d="M5610 2385 l0 -45 253 2 252 3 3 43 3 42 -255 0 -256 0 0 -45z"/>
<path d="M3240 7709 c0 -5 5 -7 10 -4 6 3 10 8 10 11 0 2 -4 4 -10 4 -5 0 -10
-5 -10 -11z"/>
<path d="M3300 7090 c0 -11 -7 -20 -15 -20 -22 0 -35 -33 -26 -66 8 -31 18
-34 32 -12 13 19 11 36 -2 18 -9 -13 -10 -13 -6 0 2 8 14 14 26 13 11 -2 21 2
21 8 0 5 -4 7 -10 4 -11 -7 -13 4 -10 48 1 15 -1 27 -4 27 -3 0 -6 -9 -6 -20z
m-23 -52 c-3 -8 -6 -5 -6 6 -1 11 2 17 5 13 3 -3 4 -12 1 -19z"/>
<path d="M3341 7094 c0 -11 3 -14 6 -6 3 7 2 16 -1 19 -3 4 -6 -2 -5 -13z"/>
</g>
</svg>
